<svg width="101" height="44" viewBox="0 0 101 44" fill="none" xmlns="http://www.w3.org/2000/svg">
<circle cx="22" cy="22" r="22" fill="#F4DE4D"/>
<path d="M26.777 23.671C26.777 22.243 27.106 20.962 27.764 19.828C28.436 18.694 29.339 17.812 30.473 17.182C31.621 16.538 32.874 16.216 34.232 16.216C35.786 16.216 37.165 16.601 38.369 17.371C39.587 18.127 40.469 19.205 41.015 20.605H38.138C37.76 19.835 37.235 19.261 36.563 18.883C35.891 18.505 35.114 18.316 34.232 18.316C33.266 18.316 32.405 18.533 31.649 18.967C30.893 19.401 30.298 20.024 29.864 20.836C29.444 21.648 29.234 22.593 29.234 23.671C29.234 24.749 29.444 25.694 29.864 26.506C30.298 27.318 30.893 27.948 31.649 28.396C32.405 28.83 33.266 29.047 34.232 29.047C35.114 29.047 35.891 28.858 36.563 28.48C37.235 28.102 37.76 27.528 38.138 26.758H41.015C40.469 28.158 39.587 29.236 38.369 29.992C37.165 30.748 35.786 31.126 34.232 31.126C32.86 31.126 31.607 30.811 30.473 30.181C29.339 29.537 28.436 28.648 27.764 27.514C27.106 26.38 26.777 25.099 26.777 23.671Z" fill="black"/>
<path d="M45.777 25.162C45.777 24 46.015 22.971 46.491 22.075C46.981 21.179 47.639 20.486 48.465 19.996C49.305 19.492 50.229 19.24 51.237 19.24C52.147 19.24 52.938 19.422 53.61 19.786C54.296 20.136 54.842 20.577 55.248 21.109V19.429H57.663V31H55.248V29.278C54.842 29.824 54.289 30.279 53.589 30.643C52.889 31.007 52.091 31.189 51.195 31.189C50.201 31.189 49.291 30.937 48.465 30.433C47.639 29.915 46.981 29.201 46.491 28.291C46.015 27.367 45.777 26.324 45.777 25.162ZM55.248 25.204C55.248 24.406 55.08 23.713 54.744 23.125C54.422 22.537 53.995 22.089 53.463 21.781C52.931 21.473 52.357 21.319 51.741 21.319C51.125 21.319 50.551 21.473 50.019 21.781C49.487 22.075 49.053 22.516 48.717 23.104C48.395 23.678 48.234 24.364 48.234 25.162C48.234 25.96 48.395 26.66 48.717 27.262C49.053 27.864 49.487 28.326 50.019 28.648C50.565 28.956 51.139 29.11 51.741 29.11C52.357 29.11 52.931 28.956 53.463 28.648C53.995 28.34 54.422 27.892 54.744 27.304C55.08 26.702 55.248 26.002 55.248 25.204ZM63.2014 21.13C63.6074 20.598 64.1604 20.15 64.8604 19.786C65.5604 19.422 66.3514 19.24 67.2334 19.24C68.2414 19.24 69.1584 19.492 69.9844 19.996C70.8244 20.486 71.4824 21.179 71.9584 22.075C72.4344 22.971 72.6724 24 72.6724 25.162C72.6724 26.324 72.4344 27.367 71.9584 28.291C71.4824 29.201 70.8244 29.915 69.9844 30.433C69.1584 30.937 68.2414 31.189 67.2334 31.189C66.3514 31.189 65.5674 31.014 64.8814 30.664C64.1954 30.3 63.6354 29.852 63.2014 29.32V36.502H60.8074V19.429H63.2014V21.13ZM70.2364 25.162C70.2364 24.364 70.0684 23.678 69.7324 23.104C69.4104 22.516 68.9764 22.075 68.4304 21.781C67.8984 21.473 67.3244 21.319 66.7084 21.319C66.1064 21.319 65.5324 21.473 64.9864 21.781C64.4544 22.089 64.0204 22.537 63.6844 23.125C63.3624 23.713 63.2014 24.406 63.2014 25.204C63.2014 26.002 63.3624 26.702 63.6844 27.304C64.0204 27.892 64.4544 28.34 64.9864 28.648C65.5324 28.956 66.1064 29.11 66.7084 29.11C67.3244 29.11 67.8984 28.956 68.4304 28.648C68.9764 28.326 69.4104 27.864 69.7324 27.262C70.0684 26.66 70.2364 25.96 70.2364 25.162ZM85.6448 24.931C85.6448 25.365 85.6168 25.757 85.5608 26.107H76.7198C76.7898 27.031 77.1328 27.773 77.7488 28.333C78.3648 28.893 79.1208 29.173 80.0168 29.173C81.3048 29.173 82.2148 28.634 82.7468 27.556H85.3298C84.9798 28.62 84.3428 29.495 83.4188 30.181C82.5088 30.853 81.3748 31.189 80.0168 31.189C78.9108 31.189 77.9168 30.944 77.0348 30.454C76.1668 29.95 75.4808 29.25 74.9768 28.354C74.4868 27.444 74.2418 26.394 74.2418 25.204C74.2418 24.014 74.4798 22.971 74.9558 22.075C75.4458 21.165 76.1248 20.465 76.9928 19.975C77.8748 19.485 78.8828 19.24 80.0168 19.24C81.1088 19.24 82.0818 19.478 82.9358 19.954C83.7898 20.43 84.4548 21.102 84.9308 21.97C85.4068 22.824 85.6448 23.811 85.6448 24.931ZM83.1458 24.175C83.1318 23.293 82.8168 22.586 82.2008 22.054C81.5848 21.522 80.8218 21.256 79.9118 21.256C79.0858 21.256 78.3788 21.522 77.7908 22.054C77.2028 22.572 76.8528 23.279 76.7408 24.175H83.1458ZM87.2028 25.162C87.2028 24 87.4408 22.971 87.9168 22.075C88.4068 21.179 89.0648 20.486 89.8908 19.996C90.7308 19.492 91.6618 19.24 92.6838 19.24C93.4398 19.24 94.1818 19.408 94.9098 19.744C95.6518 20.066 96.2398 20.5 96.6738 21.046V15.46H99.0888V31H96.6738V29.257C96.2818 29.817 95.7358 30.279 95.0358 30.643C94.3498 31.007 93.5588 31.189 92.6628 31.189C91.6548 31.189 90.7308 30.937 89.8908 30.433C89.0648 29.915 88.4068 29.201 87.9168 28.291C87.4408 27.367 87.2028 26.324 87.2028 25.162ZM96.6738 25.204C96.6738 24.406 96.5058 23.713 96.1698 23.125C95.8478 22.537 95.4208 22.089 94.8888 21.781C94.3568 21.473 93.7828 21.319 93.1668 21.319C92.5508 21.319 91.9768 21.473 91.4448 21.781C90.9128 22.075 90.4788 22.516 90.1428 23.104C89.8208 23.678 89.6598 24.364 89.6598 25.162C89.6598 25.96 89.8208 26.66 90.1428 27.262C90.4788 27.864 90.9128 28.326 91.4448 28.648C91.9908 28.956 92.5648 29.11 93.1668 29.11C93.7828 29.11 94.3568 28.956 94.8888 28.648C95.4208 28.34 95.8478 27.892 96.1698 27.304C96.5058 26.702 96.6738 26.002 96.6738 25.204Z" fill="black"/>
<rect x="69" y="13" width="12" height="3" fill="black"/>
</svg>
